<svg width="442" height="520" viewBox="0 0 442 520" xmlns="http://www.w3.org/2000/svg"><g fill="none" fill-rule="evenodd"><path d="M218.596 109.103l-4.019-1.445a1.398 1.398 0 0 0-1.79.85c-.26.731.12 1.536.847 1.797l4.017 1.445a1.399 1.399 0 0 0 1.79-.85 1.408 1.408 0 0 0-.845-1.797zm8.924 4.702c-.26.73.119 1.535.846 1.797l4.02 1.445a1.4 1.4 0 0 0 1.79-.85 1.408 1.408 0 0 0-.847-1.797l-4.018-1.445a1.4 1.4 0 0 0-1.79.85zm-3.271 2.787c-.76.138-1.266.87-1.127 1.634l.763 4.216a1.4 1.4 0 1 0 2.755-.502l-.764-4.216a1.4 1.4 0 0 0-1.627-1.132zm5.921-11.78l-3.254 2.772a1.41 1.41 0 0 0-.163 1.982c.5.592 1.384.665 1.973.162l3.256-2.772a1.41 1.41 0 0 0 .161-1.981 1.396 1.396 0 0 0-1.973-.163zm-7.093-2.55a1.4 1.4 0 1 0-2.755.503l.764 4.217a1.4 1.4 0 1 0 2.755-.503l-.764-4.216zm-4.841 12.715l-3.255 2.772a1.41 1.41 0 0 0-.162 1.981c.5.593 1.384.665 1.973.162l3.255-2.772a1.41 1.41 0 0 0 .162-1.981 1.396 1.396 0 0 0-1.973-.162z" fill="#FF8900"/><path d="M186.115 24.709a.886.886 0 0 0 .516 1.123l2.445.903a.845.845 0 0 0 1.09-.53.886.886 0 0 0-.515-1.124l-2.446-.904a.846.846 0 0 0-1.09.532m-8.452-2.188l2.446.904a.846.846 0 0 0 1.09-.532.887.887 0 0 0-.516-1.123l-2.446-.903a.846.846 0 0 0-1.09.532.885.885 0 0 0 .516 1.122m9.186-.36l1.981-1.732a.897.897 0 0 0 .1-1.238.834.834 0 0 0-1.202-.103l-1.981 1.733a.898.898 0 0 0-.098 1.238.833.833 0 0 0 1.2.102m-6.386 3.28l-1.98 1.733a.897.897 0 0 0-.099 1.238.834.834 0 0 0 1.201.102l1.982-1.733a.897.897 0 0 0 .098-1.238.834.834 0 0 0-1.202-.101m2.727-4.29a.877.877 0 0 0 .686-1.021l-.465-2.636a.854.854 0 0 0-.99-.707.877.877 0 0 0-.687 1.021l.464 2.636a.856.856 0 0 0 .992.707m.248 6.32l.464 2.635a.855.855 0 0 0 .991.708.876.876 0 0 0 .686-1.021l-.465-2.636a.854.854 0 0 0-.99-.708.878.878 0 0 0-.686 1.022" fill="#FEBF02"/><path d="M312.63 47.697a2.815 2.815 0 0 0 1.702 3.586 2.787 2.787 0 0 0 3.562-1.713 2.814 2.814 0 0 0-1.701-3.585l-8.948-3.184 2.977-8.477 6.841 2.434a2.802 2.802 0 0 0-1.084 1.402 2.815 2.815 0 0 0 1.702 3.586 2.787 2.787 0 0 0 3.562-1.712 2.815 2.815 0 0 0-1.702-3.586l-11.053-3.932-2.105-.75-3.535 10.066-.186.53 11.053 3.933a2.798 2.798 0 0 0-1.084 1.402m81.204 250.191l-7.592 42.69a10.362 10.362 0 0 0-5.782-3.108c-5.653-.992-11.046 2.755-12.046 8.37-.998 5.613 2.777 10.967 8.431 11.958 5.654.992 11.047-2.755 12.045-8.37l6.147-34.559 32.761 5.744-4.7 26.426a10.377 10.377 0 0 0-5.781-3.109c-5.655-.99-11.047 2.757-12.046 8.37-.998 5.614 2.776 10.969 8.43 11.96 5.654.99 11.048-2.757 12.046-8.37l7.592-42.692 1.446-8.13-38.904-6.82-2.047-.36zm-7.794-66.462a4.217 4.217 0 0 0-5.604-1.987 4.172 4.172 0 0 0-2 5.571c.996 2.088 3.505 2.978 5.605 1.988a4.172 4.172 0 0 0 2-5.572zm-14.419-30.237a4.217 4.217 0 0 0-5.604-1.988 4.172 4.172 0 0 0-2 5.572c.995 2.087 3.505 2.977 5.605 1.987a4.172 4.172 0 0 0 2-5.571zm-.789 37.405c-.995-2.088-3.504-2.978-5.604-1.988a4.172 4.172 0 0 0-2 5.572c.996 2.087 3.505 2.977 5.605 1.987a4.173 4.173 0 0 0 2-5.571zm-14.419-30.238a4.218 4.218 0 0 0-5.604-1.988 4.172 4.172 0 0 0-2 5.572c.995 2.087 3.505 2.977 5.605 1.988a4.173 4.173 0 0 0 2-5.572zm-.788 37.405c-.996-2.087-3.505-2.978-5.605-1.988a4.172 4.172 0 0 0-2 5.572c.996 2.087 3.505 2.978 5.605 1.988a4.173 4.173 0 0 0 2-5.572zm-14.42-30.237c-.995-2.088-3.504-2.978-5.604-1.988a4.172 4.172 0 0 0-2 5.571c.996 2.088 3.505 2.977 5.605 1.988a4.173 4.173 0 0 0 2-5.571zm59.846 18.087l-60.832 28.67-1.801-3.78a4.173 4.173 0 0 0 2-5.572c-.997-2.088-3.505-2.977-5.605-1.988l-10.815-22.678a4.173 4.173 0 0 0 2-5.572 4.218 4.218 0 0 0-5.604-1.988l-1.803-3.78 60.832-28.67 1.801 3.78a4.172 4.172 0 0 0-2 5.572c.997 2.088 3.505 2.977 5.605 1.988l10.815 22.678a4.173 4.173 0 0 0-2 5.572 4.218 4.218 0 0 0 5.604 1.988l1.803 3.78zM248.659 123.55l2.037.347.117-.746c.094-.595.078-1.137-.05-1.628a3.389 3.389 0 0 0-.61-1.264 3.563 3.563 0 0 0-2.184-1.299 3.506 3.506 0 0 0-2.469.506 3.279 3.279 0 0 0-.967.995c-.272.423-.455.931-.55 1.526l-1.23 7.797c-.096.609-.08 1.154.048 1.638.13.483.333.901.612 1.254a3.563 3.563 0 0 0 2.184 1.299 3.512 3.512 0 0 0 2.47-.506 3.3 3.3 0 0 0 .965-.985c.27-.416.453-.928.55-1.536l.734-4.646-3.654-.622-.296 1.866 1.618.276-.44 2.78c-.08.51-.276.864-.587 1.059a1.421 1.421 0 0 1-1.026.198 1.452 1.452 0 0 1-.91-.527c-.236-.29-.313-.69-.232-1.2l1.232-7.798c.081-.511.277-.865.588-1.06a1.416 1.416 0 0 1 1.026-.198c.373.063.677.239.911.528.235.288.312.688.231 1.2l-.118.746zm6.244 11.882l2.037.347.996-6.304 3.515.598.314-1.99-3.515-.599.708-4.48 4.034.688.314-1.991-6.07-1.034-2.333 14.765zm-4.015-.684l2.037.347 2.334-14.765-2.037-.347-2.334 14.765zm-49.825 312.776c2.45-4.14 1.047-9.465-3.133-11.892-4.179-2.427-9.553-1.036-12.001 3.105-2.45 4.141-1.047 9.465 3.132 11.892 4.18 2.426 9.553 1.037 12.002-3.105m-7.104 11.992l-15.117-8.777c-1.677-.974-2.242-3.104-1.267-4.753l10.653-18.013c.977-1.651 3.126-2.201 4.804-1.228l15.118 8.778c1.676.974 2.242 3.104 1.266 4.752l-2.285 3.866 1.344 1.219c.719.652.903 1.857.424 2.667l-3.564 6.025c-.485.822-1.618 1.245-2.556.937l-1.73-.565-2.285 3.864c-.977 1.652-3.127 2.202-4.805 1.228m2.197-20.884c-2.507-1.456-5.732-.622-7.201 1.862a5.188 5.188 0 0 0 1.88 7.135c2.507 1.457 5.732.623 7.201-1.862 1.47-2.485.628-5.678-1.88-7.135M23.647 338.348a8.228 8.228 0 0 1-3.258-4.365 8.384 8.384 0 0 1 .147-5.48l-.15-.479c-.71-2.245-3.067-3.476-5.267-2.756l-1.687.552a21.563 21.563 0 0 0 .692 10.212 21.257 21.257 0 0 0 5.286 8.709l1.686-.552c2.196-.719 3.41-3.12 2.702-5.363l-.151-.478zm6.21-1.499c2.932-.96 4.546-4.158 3.603-7.144-.943-2.986-4.087-4.628-7.02-3.667-2.934.96-4.547 4.158-3.604 7.144.944 2.985 4.086 4.628 7.02 3.667zM276.11 156.538l1.597 4.724c9.17 1.484 18.826.818 28.24-2.356 9.414-3.176 17.497-8.493 23.89-15.226l-1.597-4.723c-2.079-6.15-8.779-9.47-14.954-7.387l-1.319.445c-2.717 4.232-6.823 7.613-11.951 9.344-5.13 1.729-10.446 1.526-15.175-.196l-1.319.445c-6.185 2.086-9.494 8.767-7.412 14.93m21.589-22.034c8.226-2.775 12.643-11.685 9.865-19.901-2.777-8.217-11.697-12.63-19.923-9.854-8.226 2.773-12.642 11.683-9.865 19.9 2.778 8.217 11.697 12.629 19.923 9.855" fill="#FF8900"/><path d="M333.471 188.01a.866.866 0 0 1-.952-.77l-1.226-12.123a1.758 1.758 0 0 0-1.907-1.568 1.717 1.717 0 0 0-1.556 1.886l1.227 12.123c.242 2.385 2.373 4.125 4.764 3.906a4.278 4.278 0 0 0 3.892-4.699l-1.137-11.24-.35-3.459c-.386-3.814-3.8-6.622-7.624-6.272a6.872 6.872 0 0 0-6.226 7.54l1.136 11.229.35 3.456c.531 5.25 5.221 9.108 10.483 8.627 5.253-.48 9.092-5.127 8.561-10.37l-1.223-12.093a1.758 1.758 0 0 0-1.907-1.569 1.718 1.718 0 0 0-1.556 1.887l1.223 12.092a6.015 6.015 0 0 1-5.448 6.598c-3.349.307-6.333-2.146-6.67-5.49l-.35-3.455-1.136-11.23a3.437 3.437 0 0 1 3.113-3.768 3.514 3.514 0 0 1 3.811 3.136l.35 3.458 1.138 11.24a.845.845 0 0 1-.78.928m59.406 186.308l-2.957-2.159c-7.802-5.696-18.11-5.583-25.684-.444l-9.992-7.296.754 17.718-4.921 6.692c-7.282 9.904-5.111 23.75 4.802 30.99l2.957 2.159c9.897 7.228 23.835 5.101 31.097-4.775l8.745-11.895c7.283-9.905 5.112-23.75-4.801-30.99m-9.407-258.586a8.915 8.915 0 0 0 11.442-5.294l10.451-28.447 26.779 9.835-7.992 21.753a8.916 8.916 0 0 0-15.85 1.776 8.915 8.915 0 0 0 16.737 6.147l12.911-35.14 2.46-6.694-31.8-11.679-1.673-.615-12.91 35.14a8.917 8.917 0 0 0-15.85 1.777 8.913 8.913 0 0 0 5.295 11.44M143.98 320.846a5.176 5.176 0 0 0-7.324-.201 5.192 5.192 0 0 0-.201 7.333 5.176 5.176 0 0 0 7.324.202 5.192 5.192 0 0 0 .201-7.334zm-5.917-51.538a5.176 5.176 0 0 0 7.324.201 5.192 5.192 0 0 0 .2-7.333 5.176 5.176 0 0 0-7.324-.202 5.192 5.192 0 0 0-.2 7.334zm-8.33 36.468a5.176 5.176 0 0 0-7.324-.2 5.192 5.192 0 0 0-.2 7.333 5.175 5.175 0 0 0 7.323.2 5.192 5.192 0 0 0 .201-7.333zm-14.246-15.07a5.176 5.176 0 0 0-7.324-.201 5.192 5.192 0 0 0-.202 7.334 5.176 5.176 0 0 0 7.324.201 5.192 5.192 0 0 0 .202-7.334zm36.823-6.328a5.176 5.176 0 0 0 7.324.202 5.193 5.193 0 0 0 .2-7.335 5.177 5.177 0 0 0-7.324-.2 5.191 5.191 0 0 0-.2 7.333zm14.246 15.07a5.177 5.177 0 0 0 7.324.201 5.192 5.192 0 0 0 .2-7.334 5.176 5.176 0 0 0-7.323-.201 5.192 5.192 0 0 0-.2 7.335zm-19.617 47.167l-56.987-60.28 3.763-3.566a5.177 5.177 0 0 0 7.324.2 5.192 5.192 0 0 0 .2-7.333l22.577-21.397a5.177 5.177 0 0 0 7.324.2 5.191 5.191 0 0 0 .2-7.334l3.763-3.566 56.987 60.28-3.762 3.567a5.176 5.176 0 0 0-7.325-.202 5.192 5.192 0 0 0-.2 7.334l-22.576 21.398a5.176 5.176 0 0 0-7.324-.201 5.192 5.192 0 0 0-.201 7.334l-3.763 3.566zm98.071-90.935c-1.447.412-2.282 1.904-1.864 3.332l2.306 7.883c.417 1.427 1.928 2.25 3.376 1.838 1.446-.412 2.28-1.904 1.862-3.332l-2.306-7.882c-.417-1.428-1.929-2.251-3.375-1.84m-11.965-1.906l-5.762 5.913a2.667 2.667 0 0 0 .074 3.805 2.753 2.753 0 0 0 3.855-.074l5.762-5.912a2.668 2.668 0 0 0-.075-3.806 2.752 2.752 0 0 0-3.854.074m17.757-4.037c-.361 1.443.531 2.903 1.992 3.259l8.068 1.97c1.462.357 2.94-.523 3.301-1.966.362-1.443-.53-2.902-1.991-3.259l-8.069-1.97c-1.461-.357-2.939.524-3.3 1.966m-10.429-9.904c1.446-.412 2.28-1.904 1.863-3.331l-2.305-7.883c-.419-1.428-1.93-2.251-3.376-1.84-1.447.414-2.28 1.906-1.863 3.333l2.305 7.882c.418 1.428 1.929 2.252 3.376 1.84m-7.785 2.684l-8.068-1.97c-1.462-.357-2.939.523-3.301 1.966-.361 1.443.53 2.903 1.992 3.26l8.068 1.97c1.462.356 2.94-.524 3.301-1.967.362-1.443-.53-2.902-1.992-3.259m21.583-10.422l-5.762 5.913a2.666 2.666 0 0 0 .075 3.805 2.75 2.75 0 0 0 3.855-.074l5.762-5.912a2.667 2.667 0 0 0-.075-3.805 2.75 2.75 0 0 0-3.855.073M15.922 111.774c-1.153-2.199-3.858-3.049-6.043-1.896-2.185 1.152-3.023 3.869-1.87 6.068 3.578 6.828 11.226 16.556 17.797 22.727 3.883 3.647 7.092 5.86 9.98 6.344 6.075 1.019 8.24-3.993 7.015-10.27-.965-4.943-3.36-8.932-12.687-22.785-.56-.831-1.006-1.496-1.435-2.136-5.734-8.575-8.762-13.776-10.147-17.906-1.221-3.637-1-4.252 1.14-4.677-.392.078-.304.113.237.57 1.014.861 2.275 2.354 3.73 4.445 2.515 3.612 4.86 7.706 9.708 16.665l.748 1.382c5.46 10.09 8.182 14.792 11.295 19.073 5.052 6.946 9.694 10.243 15.047 7.765 5.161-2.39 4.674-7.36 1.602-15.728-1.739-4.737-4.089-9.88-8.716-19.415l-.602-1.24c-3.617-7.445-5.529-11.454-6.909-14.637 2.457 3.486 5.227 8.024 9.285 15.041.587 1.018 1.234 2.14 2.461 4.272a925.07 925.07 0 0 0 2.429 4.189c9.8 16.762 13.037 20.959 19.224 17.554 5.563-3.061 3.495-12.74-2.583-28.367-5.067-13.03-11.6-25.16-17.2-30.995a4.457 4.457 0 0 0-6.325-.125c-1.775 1.72-1.823 4.566-.105 6.356 4.577 4.77 10.629 16.006 15.299 28.016 1.31 3.367 2.423 6.588 3.281 9.458a229.68 229.68 0 0 1-3.882-6.436 815.187 815.187 0 0 1-2.4-4.14c-1.225-2.128-1.875-3.258-2.468-4.282C50.131 74.704 45.3 68.288 37.761 70.887c-5.658 1.95-5.024 6.535-1.683 15.09 1.705 4.361 3.49 8.176 8.606 18.71l.6 1.235c4.489 9.25 6.766 14.232 8.363 18.583.215.586.406 1.136.577 1.656a37.36 37.36 0 0 1-1.617-2.075c-2.787-3.832-5.403-8.353-10.656-18.059l-.748-1.382C29.14 82.351 25.375 76.941 17.913 78.423 9.633 80.067 7.3 86.56 10.056 94.772c1.732 5.164 5.009 10.79 11.203 20.054.434.65.885 1.321 1.45 2.16 5.53 8.213 8.464 12.779 9.979 15.843a46.832 46.832 0 0 1-.783-.716c-5.871-5.515-12.898-14.453-15.983-20.34m274.465 162.185c-.566.763-.403 1.831.378 2.414.784.585 1.849.432 2.414-.33l13.478-18.177 4.148-5.593c2.287-3.083 1.641-7.45-1.444-9.751-3.078-2.298-7.44-1.664-9.723 1.415l-13.465 18.158-4.144 5.59c-4.009 5.405-2.88 13.037 2.522 17.068 5.388 4.022 13.02 2.912 17.02-2.481l14.5-19.555a3.468 3.468 0 0 1 4.864-.71 3.495 3.495 0 0 1 .72 4.877l-14.5 19.556c-6.289 8.48-18.276 10.222-26.746 3.9-8.484-6.334-10.26-18.331-3.964-26.823l4.145-5.59 13.465-18.158c4.572-6.166 13.29-7.432 19.45-2.833 6.167 4.604 7.459 13.335 2.884 19.505l-4.148 5.593-13.479 18.177c-2.856 3.85-8.277 4.632-12.14 1.749-3.854-2.878-4.68-8.311-1.818-12.169l14.537-19.605a3.468 3.468 0 0 1 4.863-.71 3.494 3.494 0 0 1 .72 4.878l-14.537 19.605zM211.283 476.76l-9.844-5.725a3.717 3.717 0 0 0-5.095 1.374 3.767 3.767 0 0 0 1.363 5.127l9.845 5.724a3.717 3.717 0 0 0 5.095-1.373 3.767 3.767 0 0 0-1.364-5.128m32.373-5.715l-9.847 5.719a3.767 3.767 0 0 0-1.365 5.127 3.716 3.716 0 0 0 5.093 1.376l9.847-5.72a3.767 3.767 0 0 0 1.366-5.127 3.716 3.716 0 0 0-5.094-1.375m-21.114 28.1c-2.06 0-3.73 1.68-3.73 3.753l-.002 11.444c0 2.073 1.669 3.754 3.728 3.754 2.06 0 3.73-1.68 3.73-3.753l.003-11.444c0-2.073-1.67-3.754-3.729-3.754m24.838-1.4l-9.844-5.723a3.716 3.716 0 0 0-5.094 1.374 3.765 3.765 0 0 0 1.363 5.127l9.845 5.724a3.716 3.716 0 0 0 5.095-1.374 3.766 3.766 0 0 0-1.365-5.127m-24.83-40.558c-2.06-.001-3.73 1.68-3.73 3.752l-.003 11.443c0 2.074 1.67 3.755 3.73 3.755s3.73-1.68 3.73-3.753l.001-11.444c.001-2.073-1.668-3.753-3.728-3.753m-14.999 34.83l-9.847 5.718a3.768 3.768 0 0 0-1.366 5.128 3.717 3.717 0 0 0 5.094 1.375l9.847-5.72a3.767 3.767 0 0 0 1.367-5.127 3.716 3.716 0 0 0-5.095-1.375" fill="#FEBF02"/><path d="M180.684 404.79a40.082 40.082 0 0 1 9.428-2.998l2.715-.5 1.161 2.53 1.714 3.737c.456 1.03.437 1.02 1.75.943 1.092-.067 2.599-.176 4.84-.349 3.852-.288 6.082-.45 8.066-.574.989-.043 1.114-.095 1.19-.302.06-.16.112-.495.162-1.133.468-6.323-1.915-12.132-5.753-13.538-5.986-2.192-18.2-.83-28.944 4.12-10.715 4.939-19.727 13.362-22.005 19.355l-.033.09c-1.414 3.828 1.379 9.43 6.378 13.197 1.168.876 1.035.885 2.01-.135a682.083 682.083 0 0 1 5.635-5.695 482.366 482.366 0 0 1 3.427-3.499c.554-.574.716-.788.772-.94.03-.083.025-.222-.057-.483a4.906 4.906 0 0 0-.236-.582l-1.664-3.683-1.154-2.55 2.165-1.754a40.16 40.16 0 0 1 8.433-5.257M434.5 245.063c-6.34-3.25-20.086-3.466-32.695.47-12.578 3.926-23.747 11.924-27.105 18.193l-.05.095c-2.1 4.01.224 10.562 5.25 15.404 1.176 1.127 1.026 1.118 2.25.133a760.949 760.949 0 0 1 7.043-5.47 520.99 520.99 0 0 1 4.289-3.366c.693-.554.904-.766.987-.926.046-.087.059-.241.003-.54a5.274 5.274 0 0 0-.18-.672l-1.338-4.282-.927-2.967 2.646-1.625a44.988 44.988 0 0 1 10.088-4.596 45.151 45.151 0 0 1 10.88-1.975l3.083-.168.937 2.945 1.385 4.349c.364 1.196.344 1.182 1.81 1.282 1.223.08 2.91.17 5.421.295 4.315.223 6.813.359 9.032.5 1.104.091 1.25.052 1.363-.165.088-.167.193-.527.337-1.224 1.396-6.885-.444-13.606-4.509-15.69M305.114 351.928l-1.768 2.958 9.412 5.57 13.106-21.938-3.157-1.869-5.597 9.367-5.448-3.224-1.766 2.957 5.448 3.225-3.977 6.656-6.253-3.702zM333.675 369c.715-.494 1.337-1.183 1.864-2.067l6.921-11.586c.541-.903.855-1.78.945-2.631.089-.85.013-1.647-.228-2.387a6.102 6.102 0 0 0-1.105-2.01 6.493 6.493 0 0 0-1.702-1.466 6.515 6.515 0 0 0-2.107-.788 6.177 6.177 0 0 0-2.3-.006c-.77.143-1.508.456-2.217.94-.708.484-1.332 1.179-1.873 2.082l-4.123 6.902 5.665 3.354 1.657-2.773-2.508-1.485 2.467-4.128c.455-.76 1-1.195 1.638-1.304a2.615 2.615 0 0 1 1.824.349c.577.342.97.818 1.18 1.429.207.609.085 1.294-.37 2.054l-6.921 11.586c-.455.76-1 1.195-1.639 1.304a2.613 2.613 0 0 1-1.823-.35 2.599 2.599 0 0 1-1.18-1.428c-.207-.61-.085-1.295.37-2.056l.662-1.108-3.158-1.869-.662 1.109c-.528.884-.839 1.756-.935 2.617-.095.86-.022 1.661.22 2.403.241.74.61 1.41 1.104 2.01a6.493 6.493 0 0 0 1.702 1.465 6.471 6.471 0 0 0 2.105.787c.765.147 1.532.15 2.302.007.769-.142 1.512-.461 2.225-.956zm-1.587-26.8l-3.159-1.868-13.107 21.938 3.159 1.87 13.107-21.94zM62.46 253.622l-2.476 12.93c-.142.742.586 1.344 1.27 1.054l6.613-2.844-.852 4.453c-.36 1.882.843 3.695 2.692 4.061l15.118 2.996c1.846.365 3.634-.861 3.993-2.738l2.944-15.378c.36-1.882-.843-3.695-2.69-4.061l-15.12-2.995c-1.846-.365-3.634.86-3.993 2.737l-.853 4.459-5.081-5.165c-.527-.531-1.424-.25-1.566.491m-37.497-61.39c9.801 0 17.747-7.946 17.747-17.747 0-9.802-7.946-17.747-17.747-17.747s-17.747 7.945-17.747 17.747c0 9.8 7.946 17.746 17.747 17.746zm0 2.535c-11.202 0-20.282-9.08-20.282-20.282s9.08-20.283 20.282-20.283c11.201 0 20.282 9.081 20.282 20.283 0 11.201-9.08 20.282-20.282 20.282zm0-5.07c8.401 0 15.211-6.811 15.211-15.212 0-8.402-6.81-15.212-15.211-15.212S9.75 166.083 9.75 174.485c0 8.4 6.81 15.211 15.212 15.211z" fill="#9C00FE"/><path d="M431.126 274.524l-12.498-1.915a1.826 1.826 0 0 0-2.077 1.499c-.16.98.508 1.895 1.494 2.046l12.498 1.915c3.447.528 5.789 3.74 5.227 7.162-.565 3.428-3.814 5.776-7.268 5.247l-3.572-.548-11.605-1.778a3.558 3.558 0 0 1-2.984-4.091c.322-1.96 2.18-3.301 4.15-3l3.575.548 11.617 1.78a.874.874 0 0 1 .731 1.021.898.898 0 0 1-1.022.751l-12.53-1.919a1.825 1.825 0 0 0-2.076 1.5 1.776 1.776 0 0 0 1.493 2.045l12.53 1.92a4.55 4.55 0 0 0 5.175-3.75 4.429 4.429 0 0 0-3.718-5.113l-11.616-1.78-3.575-.547c-3.943-.605-7.66 2.08-8.305 5.996-.643 3.912 2.032 7.582 5.973 8.185l11.604 1.778 3.572.547c5.427.831 10.535-2.86 11.42-8.246.886-5.378-2.793-10.423-8.213-11.253M26.052 218.572c2.034 1.19 4.634.773 6.029-1.096l7.213-9.66-23.146 3.345 9.904 7.411zm20.615 40.212l19.787-26.504c1.097-1.467.778-3.56-.652-4.631l-23.858-17.852-7.867 10.537c-2.219 2.971-6.366 3.622-9.331 1.403l-10.583-7.917-9.913 13.277c-1.083 1.45-.783 3.507.69 4.61l37.09 27.75c1.465 1.097 3.555.777 4.637-.673zm-5.478 105.121l5.848-2.955-12.054-4.028 3.011 6.044c.7 1.078 2.064 1.51 3.195.94zm6.654-1.338l-6.38 3.223c-1.798.909-3.97.213-4.872-1.597l-3.217-6.457-8.038 4.061a1.804 1.804 0 0 0-.783 2.422l11.275 22.63a1.8 1.8 0 0 0 2.415.805l16.045-8.108a1.824 1.824 0 0 0 .807-2.422l-7.252-14.557zm207.306-163.715l.564 3.538c1.487 9.33 8.702 16.333 17.473 17.953l1.906 11.952 11.644-12.871 8-1.287c11.843-1.902 19.848-13.046 17.957-24.904l-.564-3.537c-1.888-11.84-12.995-19.93-24.802-18.034l-14.222 2.286c-11.842 1.902-19.847 13.047-17.956 24.904M30.338 311.93a2.895 2.895 0 0 0 2.597-3.162l-.839-8.797a2.888 2.888 0 0 0-3.146-2.61 2.896 2.896 0 0 0-2.597 3.162l.839 8.798a2.888 2.888 0 0 0 3.146 2.61m-.478-35.42l-.838-8.797a2.889 2.889 0 0 0-3.147-2.609 2.894 2.894 0 0 0-2.595 3.162l.837 8.797a2.888 2.888 0 0 0 3.147 2.61 2.895 2.895 0 0 0 2.596-3.163m13.283-2.32l-7.16 5.128a2.908 2.908 0 0 0-.676 4.043 2.875 2.875 0 0 0 4.023.679l7.161-5.129c1.298-.93 1.6-2.74.676-4.043a2.875 2.875 0 0 0-4.024-.678m-6.994 18.015a2.905 2.905 0 0 0 1.427 3.84l8 3.67a2.878 2.878 0 0 0 3.822-1.434 2.905 2.905 0 0 0-1.426-3.84l-8.001-3.67a2.88 2.88 0 0 0-3.822 1.434m-15.241 1.467a2.876 2.876 0 0 0-4.024-.678l-7.162 5.128a2.91 2.91 0 0 0-.676 4.044 2.875 2.875 0 0 0 4.024.678l7.162-5.129a2.909 2.909 0 0 0 .676-4.043m-.844-8.844a2.903 2.903 0 0 0-1.426-3.84l-8-3.67a2.878 2.878 0 0 0-3.823 1.434 2.905 2.905 0 0 0 1.427 3.841l8 3.669c1.45.665 3.16.023 3.822-1.434M172.87 479.974l-9.054 19.257 2.747 1.303 9.054-19.257-2.746-1.303zm-3.642 21.825l2.747 1.303 3.865-8.222 4.74 2.248 1.22-2.597-4.738-2.248 2.746-5.842 5.44 2.58 1.22-2.596-8.185-3.884-9.055 19.258zm-7.858-16.696l-1.145 2.434 2.182 1.035-1.704 3.625c-.315.666-.73 1.07-1.245 1.211a2.142 2.142 0 0 1-1.53-.145 2.157 2.157 0 0 1-1.082-1.094c-.22-.49-.173-1.069.141-1.735l4.782-10.17c.313-.667.728-1.071 1.245-1.212a2.145 2.145 0 0 1 1.528.146 2.16 2.16 0 0 1 1.083 1.093c.22.49.172 1.069-.141 1.736l-.458.974 2.747 1.302.457-.973c.365-.775.552-1.524.563-2.247a4.744 4.744 0 0 0-.37-1.979 5.095 5.095 0 0 0-1.068-1.582 5.34 5.34 0 0 0-1.516-1.083 5.34 5.34 0 0 0-1.796-.488 5.049 5.049 0 0 0-1.894.176 4.736 4.736 0 0 0-1.757.97c-.549.468-1.006 1.09-1.37 1.864l-4.781 10.17c-.373.792-.563 1.546-.57 2.26-.006.714.12 1.369.377 1.965a5.102 5.102 0 0 0 1.068 1.581c.454.46.96.82 1.515 1.084a5.36 5.36 0 0 0 1.796.488 5.06 5.06 0 0 0 1.895-.176 4.75 4.75 0 0 0 1.75-.956c.545-.459 1.004-1.084 1.377-1.878l2.848-6.058-4.927-2.338zM392.525 67.851c0-5.739-4.652-10.391-10.391-10.391-5.74 0-10.392 4.652-10.392 10.391 0 10.392 10.392 17.319 10.392 17.319s10.39-6.927 10.39-17.319zm-10.391 5.196a5.196 5.196 0 1 0 0-10.391 5.196 5.196 0 0 0 0 10.39zm-197.937 50.809v7.44c-8.068.381-16.321-2.536-22.55-8.764-6.227-6.227-9.144-14.48-8.763-22.549h7.44c-.39 6.164 1.8 12.52 6.577 17.297 4.776 4.776 11.132 6.966 17.296 6.576zm-12.044-11.829c5.813 5.813 15.154 5.857 20.837.174l10.854-10.853c5.683-5.683 5.639-15.025-.174-20.837-5.813-5.813-15.154-5.857-20.837-.174L171.979 91.19c-5.682 5.683-5.638 15.024.174 20.837z" fill="#FB0807"/><path d="M150.674 58.91l1.521 4.583c2.313 6.962 9.812 10.768 16.762 8.511 6.94-2.252 10.706-9.724 8.399-16.676l-5.324-16.033a2.428 2.428 0 0 0-3.048-1.548 2.39 2.39 0 0 0-1.527 3.032l5.324 16.034c1.468 4.42-.931 9.179-5.345 10.611-4.425 1.437-9.194-.983-10.666-5.416l-1.521-4.583-4.943-14.886a4.783 4.783 0 0 1 3.055-6.063c2.527-.82 5.255.565 6.094 3.093l1.522 4.586 4.949 14.902a1.177 1.177 0 0 1-.77 1.497 1.195 1.195 0 0 1-1.517-.754L158.3 43.727a2.429 2.429 0 0 0-3.047-1.548 2.39 2.39 0 0 0-1.527 3.033l5.337 16.073a6.052 6.052 0 0 0 7.612 3.849 5.953 5.953 0 0 0 3.823-7.56l-4.947-14.904-1.522-4.585c-1.68-5.06-7.137-7.829-12.19-6.189-5.047 1.638-7.787 7.072-6.109 12.127l4.943 14.887zm56.684 194.165c1.507-1.472 1.503-1.432.498-3.689-.842-1.877-2.033-4.455-3.822-8.285-3.06-6.585-4.821-10.401-6.355-13.81-.733-1.711-.906-1.898-1.32-1.898-.32 0-.943.126-2.1.453-11.419 3.282-20.046 11.243-19.972 18.905.116 11.95 10.606 32.543 26.425 48.22 15.78 15.637 36.555 26.013 48.594 26.127h.18c7.664 0 15.655-8.548 18.96-19.784.764-2.623.87-2.395-1.57-3.445-3.326-1.471-7.177-3.216-13.74-6.212a914.64 914.64 0 0 1-8.42-3.755c-1.376-.6-1.86-.748-2.164-.748-.166 0-.408.1-.81.415-.243.189-.445.374-.867.793l-5.367 5.318-3.718 3.684-4.517-2.667c-4.972-2.939-10.086-6.72-14.825-11.416-4.757-4.714-8.616-9.807-11.518-14.632l-2.677-4.45 3.675-3.684 5.43-5.44zm-68.436-135.43c-.158.04-.45.177-.98.478-5.231 3.008-8.506 7.99-7.523 11.77 1.533 5.893 9.253 14.803 18.998 20.636 9.72 5.817 21.256 8.427 27.212 7.024l.09-.022c3.782-.93 6.67-6.125 6.914-12.081.054-1.39.133-1.289-1.2-1.513-1.824-.324-3.94-.719-7.55-1.405a457.272 457.272 0 0 1-4.619-.835c-.754-.13-1.01-.144-1.16-.107-.082.02-.19.1-.35.303a4.81 4.81 0 0 0-.33.497l-1.991 3.28-1.38 2.273-2.56-.772a38.976 38.976 0 0 1-8.727-3.845 38.921 38.921 0 0 1-7.493-5.837l-1.87-1.876 1.359-2.268 2.008-3.347c.562-.91.565-.89-.21-1.885a340.123 340.123 0 0 0-2.91-3.632 646.278 646.278 0 0 1-4.842-6.058c-.572-.757-.68-.828-.886-.778m48.616 48.243l-1.07 1.9 39.593 22.626a10.816 10.816 0 0 0-5.094 4.619c-2.954 5.243-1.13 11.905 4.077 14.88 5.206 2.976 11.822 1.138 14.777-4.105 2.954-5.244 1.129-11.905-4.078-14.88l-32.051-18.318 17.12-30.379 24.51 14.008a10.816 10.816 0 0 0-5.095 4.618c-2.955 5.243-1.13 11.905 4.077 14.88 5.206 2.977 11.822 1.138 14.776-4.105 2.955-5.243 1.13-11.905-4.077-14.881l-39.594-22.627-7.541-4.31-20.33 36.074zM149.95 381.127c.487.773 1.183 1.457 2.09 2.053l11.884 7.814c.927.61 1.837.982 2.73 1.117.892.134 1.736.093 2.529-.125a6.45 6.45 0 0 0 2.172-1.06 6.819 6.819 0 0 0 1.628-1.713c.43-.652.74-1.375.932-2.17.19-.793.23-1.597.117-2.41-.112-.813-.408-1.604-.885-2.37-.476-.765-1.178-1.453-2.105-2.063l-7.08-4.655-3.81 5.776 2.845 1.87 1.686-2.556 4.236 2.784c.78.513 1.211 1.107 1.296 1.78.084.674-.068 1.305-.457 1.895a2.728 2.728 0 0 1-1.563 1.166c-.653.189-1.369.027-2.149-.485l-11.884-7.814c-.779-.512-1.211-1.106-1.295-1.78-.085-.673.067-1.305.456-1.894.389-.59.909-.978 1.562-1.167.654-.189 1.37-.027 2.15.486l1.137.748 2.123-3.22-1.137-.748c-.906-.596-1.811-.965-2.715-1.106-.903-.142-1.752-.103-2.544.114a6.441 6.441 0 0 0-2.173 1.06 6.819 6.819 0 0 0-1.627 1.713 6.782 6.782 0 0 0-.933 2.17 6.414 6.414 0 0 0-.117 2.411c.113.814.413 1.606.9 2.38zm5.833-15.167l22.504 14.797 2.123-3.22-22.504-14.797-2.123 3.22zm28.81 5.233l-9.608-6.318 3.663-5.554-3.034-1.995-3.663 5.554-6.828-4.489 4.205-6.375-3.035-1.995-6.326 9.594 22.503 14.798 2.124-3.22zM76.35 223.935c2.866-1.654 4.835-3.996 11.459-12.758l1.022-1.349c4.107-5.399 6.695-8.393 8.967-10.136 2-1.535 2.429-1.529 3.149-.285-.132-.228-.135-.166-.305.27-.318.814-.978 1.918-1.967 3.27-1.71 2.336-3.754 4.67-8.29 9.599l-.7.76c-5.107 5.55-7.45 8.248-9.448 11.1-3.24 4.627-4.3 8.221-1.621 11.03 2.585 2.707 5.569 1.346 10.115-2.35 2.574-2.093 5.269-4.653 10.21-9.567l.64-.638c3.854-3.836 5.937-5.88 7.62-7.417-1.642 2.273-3.868 4.961-7.364 8.983l-2.13 2.444a408.11 408.11 0 0 0-2.086 2.405c-8.33 9.677-10.25 12.587-6.816 15.718 3.086 2.815 8.66-.535 17.078-7.65 7.018-5.932 13.165-12.586 15.6-17.318a2.94 2.94 0 0 0-1.269-3.968 2.957 2.957 0 0 0-3.973 1.287c-1.99 3.869-7.683 10.032-14.152 15.5a83.028 83.028 0 0 1-5.18 4.058 153.255 153.255 0 0 1 3.173-3.789 526.24 526.24 0 0 1 2.063-2.377l2.135-2.45c10.943-12.59 13.901-16.966 10.682-21.11-2.415-3.11-5.13-1.74-9.736 2.165-2.347 1.99-4.338 3.914-9.794 9.346-.32.32-.32.32-.64.637-4.794 4.767-7.404 7.247-9.768 9.169a37.7 37.7 0 0 1-.89.699c.266-.445.564-.916.928-1.436 1.789-2.553 4.04-5.147 8.955-10.487l.7-.76c11.285-12.265 13.846-15.763 11.336-20.097-2.784-4.81-7.315-4.882-11.832-1.416-2.84 2.18-5.64 5.42-10.077 11.252-.312.408-.633.833-1.034 1.363-3.927 5.196-6.14 7.996-7.72 9.592.088-.208.178-.42.277-.64 2.177-4.833 6.236-11.116 9.237-14.29a2.95 2.95 0 0 0-.109-4.17 2.948 2.948 0 0 0-4.168.126c-3.482 3.684-7.899 10.52-10.335 15.93-1.44 3.197-2.131 5.668-1.818 7.57.66 4.003 4.236 4.286 7.876 2.185m190.733 186.98l30.862 23.548c3.767 2.874 9.166 2.167 12.057-1.58l23.674-30.684a8.508 8.508 0 0 0-1.586-11.99l-30.863-23.547c-3.767-2.874-9.165-2.166-12.056 1.58l-6.863 8.895-5.766-17.1c-.605-1.765-2.943-2.148-4.084-.669L252.55 385.17c-1.14 1.478-.163 3.625 1.706 3.75l18.097 1.12-6.856 8.886a8.509 8.509 0 0 0 1.587 11.99m63.474 35.508a6.58 6.58 0 0 0-1.311 9.224 6.606 6.606 0 0 0 9.238 1.309 6.58 6.58 0 0 0 1.312-9.223 6.605 6.605 0 0 0-9.239-1.31zm12.754-1.328c-3.648-4.847-10.541-5.825-15.397-2.181-4.855 3.64-5.833 10.523-2.185 15.371 3.648 4.847 10.541 5.824 15.397 2.182 4.856-3.643 5.833-10.524 2.185-15.372zm11.874 4.809c1.463 1.945 1.077 4.7-.857 6.151L333.21 471.9c-1.935 1.452-4.691 1.055-6.155-.891l-13.197-17.533c-1.463-1.945-1.076-4.702.857-6.152l4.531-3.4-.96-2.068c-.512-1.109-.136-2.602.813-3.314l7.066-5.3c.962-.722 2.479-.667 3.414.143l1.724 1.496 4.532-3.4c1.936-1.452 4.691-1.055 6.155.892l13.197 17.532zm72.872-304.107c-4.09-2-9.008-.267-10.984 3.868-1.978 4.135-.265 9.107 3.824 11.106 4.09 1.999 9.009.268 10.986-3.868 1.977-4.135.264-9.108-3.826-11.106m11.088 3.56l-1.845 3.86 1.348 1.061c.722.569.984 1.704.597 2.512l-2.877 6.017c-.391.82-1.419 1.31-2.318 1.088l-1.66-.41-1.845 3.86a3.273 3.273 0 0 1-4.399 1.534l-14.793-7.23a3.344 3.344 0 0 1-1.543-4.438l8.6-17.987a3.273 3.273 0 0 1 4.399-1.534l14.793 7.23a3.344 3.344 0 0 1 1.543 4.437m-12.52-.565c-2.453-1.2-5.405-.16-6.59 2.32-1.187 2.481-.16 5.465 2.295 6.664 2.453 1.2 5.404.16 6.59-2.32 1.187-2.481.16-5.465-2.295-6.664M96.477 328.673c4.487-13.032-2.44-27.233-15.471-31.72-13.032-4.488-27.233 2.439-31.72 15.47-8.125 23.596 10.054 47.451 10.054 47.451s29.012-7.606 37.137-31.201zm-27.658 3.673c6.516 2.243 13.617-1.22 15.86-7.736 2.244-6.515-1.22-13.616-7.735-15.86-6.516-2.243-13.617 1.22-15.86 7.736-2.244 6.515 1.22 13.616 7.735 15.86z" fill="#00C800"/><path d="M133.779 401.969a5.467 5.467 0 0 0 .767-7.644 5.353 5.353 0 0 0-7.577-.759L97.76 417.663c-8.055 6.646-19.945 5.449-26.517-2.659-6.589-8.127-5.393-20.087 2.681-26.748l8.348-6.888 27.121-22.376c4.599-3.794 11.394-3.109 15.15 1.524 3.762 4.64 3.077 11.481-1.53 15.281l-8.354 6.893-27.149 22.398c-1.137.939-2.797.77-3.752-.41-.952-1.175-.791-2.852.347-3.791l29.282-24.158a5.466 5.466 0 0 0 .767-7.643 5.352 5.352 0 0 0-7.577-.76l-29.282 24.159c-5.762 4.753-6.582 13.277-1.88 19.078 4.711 5.813 13.154 6.672 18.906 1.928l27.15-22.4 8.353-6.892c9.215-7.602 10.585-21.287 3.062-30.567-7.514-9.27-21.094-10.64-30.303-3.041l-27.121 22.375-8.348 6.887c-12.685 10.465-14.564 29.268-4.216 42.035 10.332 12.747 29.008 14.627 41.672 4.178l29.209-24.097zM66.373 187.493a.968.968 0 0 1-1.06-.87l-1.368-13.71c-.108-1.079-1.06-1.873-2.125-1.774a1.935 1.935 0 0 0-1.736 2.132l1.368 13.71c.27 2.697 2.646 4.666 5.31 4.418 2.67-.248 4.609-2.621 4.34-5.314l-1.268-12.712-.39-3.91c-.43-4.315-4.235-7.49-8.498-7.095-4.26.396-7.372 4.216-6.942 8.528l1.267 12.698.39 3.909c.592 5.939 5.821 10.3 11.686 9.756 5.855-.544 10.135-5.798 9.543-11.728l-1.364-13.675c-.108-1.08-1.06-1.873-2.125-1.774a1.934 1.934 0 0 0-1.735 2.132l1.364 13.676c.376 3.77-2.348 7.117-6.073 7.462-3.734.347-7.06-2.428-7.436-6.208l-.39-3.909-1.267-12.697c-.214-2.154 1.343-4.065 3.47-4.263 2.133-.198 4.035 1.39 4.25 3.546l.39 3.911 1.268 12.711a.951.951 0 0 1-.87 1.05m95.12-16.783l-14.466 2.24c-12.046 1.864-20.246 13.15-18.394 25.22l.553 3.6a22.09 22.09 0 0 0 17.65 18.36l1.867 12.165 11.91-13.02 8.137-1.26c12.047-1.865 20.247-13.15 18.395-25.219l-.553-3.6c-1.848-12.051-13.09-20.346-25.1-18.486m83.794 286.477l22.461-21.537 1.182-1.133-23.87-24.757a8.17 8.17 0 0 0 4.684-2.222 8.161 8.161 0 0 0 .227-11.561 8.216 8.216 0 0 0-11.594-.227 8.161 8.161 0 0 0-.227 11.562l19.323 20.04-18.916 18.136-14.776-15.324a8.172 8.172 0 0 0 4.683-2.223 8.161 8.161 0 0 0 .228-11.562c-3.138-3.255-8.33-3.356-11.594-.226a8.16 8.16 0 0 0-.228 11.562l23.87 24.756 4.547 4.716zm194.612-230.515l.089-14.797-34.096-.21-.03 4.964 14.558.09-.052 8.567 4.598.029.051-8.568 10.344.064-.06 9.833 4.598.028zm-7.841-34.121l-1.724-.011-.03 4.964 1.724.011c1.373.009 2.588-.228 3.645-.708 1.055-.48 1.929-1.116 2.62-1.906a8.33 8.33 0 0 0 1.573-2.668 8.875 8.875 0 0 0 .544-2.99 8.863 8.863 0 0 0-.509-2.996 8.322 8.322 0 0 0-1.54-2.688c-.682-.799-1.548-1.445-2.598-1.938-1.05-.494-2.263-.745-3.635-.752l-18.006-.112c-1.405-.008-2.627.227-3.668.707-1.04.48-1.906 1.116-2.597 1.907a8.299 8.299 0 0 0-1.572 2.667 8.886 8.886 0 0 0-.545 2.991 8.914 8.914 0 0 0 .508 2.997 8.32 8.32 0 0 0 1.541 2.686c.681.8 1.54 1.446 2.575 1.94 1.034.492 2.254.743 3.658.752l10.727.067.054-8.909-4.31-.026-.024 3.943-6.417-.04c-1.182-.008-2.05-.346-2.604-1.014-.555-.669-.829-1.457-.823-2.366.004-.908.288-1.694.851-2.355.563-.663 1.435-.99 2.616-.982l18.006.111c1.181.007 2.05.345 2.604 1.014.554.668.83 1.458.824 2.366-.006.909-.29 1.694-.852 2.356-.563.661-1.435.988-2.616.982zm-26.137 14.294l34.096.212.029-4.966-34.096-.21-.03 4.964zm-47.534-45.439l-7.015 7.226a3.27 3.27 0 0 0 .09 4.65 3.341 3.341 0 0 0 4.693-.09l7.015-7.225a3.268 3.268 0 0 0-.09-4.651 3.34 3.34 0 0 0-4.693.09zm-.555-13.758l-9.821-2.408c-1.78-.436-3.579.64-4.02 2.403-.439 1.763.647 3.547 2.426 3.983l9.822 2.408c1.78.436 3.579-.64 4.018-2.404.44-1.763-.645-3.546-2.425-3.982zm9.478-3.282c1.76-.504 2.776-2.327 2.268-4.073l-2.807-9.633c-.509-1.746-2.349-2.752-4.11-2.248-1.76.504-2.777 2.327-2.268 4.073l2.807 9.634c.509 1.745 2.349 2.752 4.11 2.247zm5.644 19.37c-1.762.504-2.777 2.327-2.268 4.072l2.807 9.634c.508 1.745 2.348 2.752 4.109 2.248 1.761-.504 2.776-2.328 2.268-4.073l-2.807-9.633c-.51-1.746-2.348-2.752-4.11-2.249zm19.299-.874c1.779.436 3.578-.64 4.018-2.403.44-1.763-.646-3.547-2.425-3.983l-9.821-2.408c-1.78-.436-3.58.64-4.02 2.404-.44 1.763.646 3.546 2.425 3.982l9.823 2.408zm-10.376-16.165l7.014-7.226a3.268 3.268 0 0 0-.09-4.651 3.34 3.34 0 0 0-4.694.09l-7.014 7.226a3.269 3.269 0 0 0 .091 4.651 3.34 3.34 0 0 0 4.693-.09zm-12.551 173.158c1.918.42 3.815-.809 4.237-2.745 1.311-6.011 1.63-15.889.786-23.04-.5-4.225-1.32-7.228-2.828-9.01-3.175-3.746-7.052-1.799-9.512 2.666-1.939 3.516-2.52 7.186-3.924 20.446l-.218 2.043c-.893 8.188-1.709 12.922-2.976 16.159-1.115 2.85-1.564 3.112-3.082 2.27.278.154.243.087.147-.471-.177-1.047-.181-2.609.002-4.633.316-3.5.98-7.209 2.609-15.175l.25-1.229c1.834-8.972 2.58-13.245 2.874-17.462.475-6.842-.663-11.245-5.184-12.483-4.36-1.196-6.603 2.09-9.009 8.782-1.362 3.789-2.56 8.14-4.615 16.344l-.268 1.067c-1.604 6.41-2.489 9.841-3.275 12.497.287-3.394.92-7.591 2.037-13.966.162-.923.342-1.942.685-3.875.276-1.572.475-2.708.662-3.808 2.603-15.282 2.778-19.51-2.724-20.614-4.947-.991-8.633 5.985-12.919 18.657-3.575 10.568-5.797 21.338-5.373 27.783.131 1.977 1.824 3.467 3.783 3.33 1.959-.137 3.442-1.85 3.312-3.828-.348-5.269 1.71-15.246 5.005-24.985.924-2.73 1.892-5.272 2.837-7.467-.23 1.676-.534 3.617-.927 5.93-.185 1.082-.38 2.206-.655 3.764-.342 1.93-.524 2.955-.687 3.885-3.496 19.947-3.834 26.352 2.078 28.643 4.436 1.72 6.392-1.408 8.73-8.353 1.192-3.54 2.056-6.79 4.324-15.856l.267-1.065c1.995-7.96 3.154-12.173 4.405-15.654.17-.468.333-.902.495-1.308.002.63-.022 1.33-.077 2.1-.262 3.775-.98 7.882-2.743 16.513l-.25 1.23c-4.053 19.825-4.527 25.067.769 28 5.875 3.255 10.61.49 13.129-5.945 1.584-4.046 2.466-9.169 3.43-18.014.068-.62.137-1.263.222-2.066.832-7.862 1.38-12.16 2.023-14.81.038.272.076.547.11.84.755 6.388.462 15.464-.669 20.646-.422 1.936.79 3.846 2.707 4.267M145.283 464.648c-2.653-2.028-5.154-3.695-12.178-8.227l-.822-.532c-6.165-3.981-9.398-6.177-11.982-8.238a39.174 39.174 0 0 1-.947-.781c.535.18 1.103.388 1.74.655 3.122 1.31 6.394 3.1 13.195 7.08l.968.566c15.62 9.14 19.924 11.051 23.956 7.415 4.474-4.034 3.512-8.838-1.206-12.823-2.967-2.507-7.051-4.728-14.266-8.093-.506-.236-1.031-.479-1.686-.782-6.421-2.97-9.904-4.672-11.963-5.98.242.047.487.094.744.149 5.635 1.202 13.242 4.064 17.304 6.514 1.518.916 3.49.44 4.406-1.061a3.177 3.177 0 0 0-1.09-4.376c-4.711-2.842-12.99-5.957-19.297-7.303-3.727-.794-6.511-.965-8.46-.2-4.104 1.605-3.584 5.447-.519 8.816 2.414 2.653 5.355 4.202 16.183 9.21.65.3 1.17.541 1.669.774 6.679 3.114 10.453 5.169 12.826 7.173 2.09 1.765 2.18 2.219 1.024 3.262.212-.191.146-.18-.355-.261-.94-.15-2.264-.597-3.928-1.336-2.873-1.275-5.822-2.906-12.099-6.579l-.968-.567c-7.07-4.135-10.473-5.998-13.962-7.462-5.66-2.373-9.723-2.677-12.093.791-2.286 3.346-.155 6.19 4.815 10.154 2.813 2.244 6.151 4.51 12.504 8.615l.826.533c4.964 3.203 7.615 4.941 9.636 6.372-2.793-1.22-6.165-2.966-11.242-5.747l-3.085-1.695a611.143 611.143 0 0 0-3.034-1.66c-12.192-6.604-15.725-7.97-18.266-3.632-2.285 3.9 2.553 9.03 12.042 16.308 7.913 6.068 16.393 11.052 21.979 12.55 1.713.46 3.47-.544 3.926-2.241.455-1.699-.565-3.446-2.278-3.906-4.567-1.224-12.422-5.84-19.715-11.434a90.081 90.081 0 0 1-5.5-4.55c1.353.676 2.91 1.492 4.755 2.491.864.468 1.759.958 2.999 1.639 1.535.845 2.351 1.294 3.092 1.7 15.886 8.705 21.216 10.837 24.883 6.494 2.752-3.26.673-5.816-4.53-9.795m47.734-423.231l24.338 2.954-9.96 11.53a11.631 11.631 0 0 0 1.188 16.414l39.788 34.433c4.856 4.203 12.2 3.67 16.4-1.193l34.396-39.814a11.63 11.63 0 0 0-1.189-16.414l-39.788-34.433c-4.856-4.203-12.2-3.67-16.4 1.192L231.82 27.63l-6.424-23.69c-.676-2.445-3.802-3.15-5.46-1.231l-28.923 33.48c-1.658 1.919-.51 4.912 2.005 5.229m21.495 322.147c8.565 3.182 18.099-1.162 21.29-9.704 3.192-8.543-1.165-18.047-9.73-21.23-8.568-3.183-18.1 1.16-21.29 9.703-3.193 8.542 1.163 18.047 9.73 21.23m1.608 14.69l-12.466-4.632c-1.697-.63-2.86-2.593-2.59-4.43l.5-3.393-7.996-2.97c-3.416-1.27-5.15-5.074-3.868-8.505l11.546-30.897c1.281-3.427 5.094-5.174 8.505-3.906l37.262 13.846c3.417 1.27 5.15 5.073 3.867 8.503l-11.545 30.898c-1.28 3.426-5.094 5.174-8.505 3.906l-7.995-2.97-1.85 2.89c-.99 1.547-3.19 2.282-4.865 1.66m13.477-26.698c1.916-5.126-.7-10.83-5.839-12.74-5.14-1.908-10.858.698-12.774 5.823-1.915 5.125.699 10.83 5.838 12.738 5.14 1.91 10.86-.696 12.775-5.821" fill="#2391D3"/><path d="M117.883 71.218a6.622 6.622 0 1 0-3.557-12.757 6.622 6.622 0 0 0 3.557 12.757zM87.034 59.196l8.02 28.765 10.96-9.997 28.614 4.006-9.324-33.443-38.27 10.67zm-7.266-1.408a3.307 3.307 0 0 1 2.302-4.082l44.642-12.446a3.306 3.306 0 0 1 4.083 2.302l12.445 44.643a3.306 3.306 0 0 1-2.301 4.081l-44.643 12.447a3.306 3.306 0 0 1-4.082-2.303L79.768 57.788zm241.037 25.7c2.752 8.304 11.768 12.824 20.139 10.093 8.369-2.73 12.924-11.677 10.172-19.98-2.752-8.305-11.769-12.823-20.139-10.093-8.37 2.73-12.924 11.675-10.172 19.98m-10.026-20.056l36.41-11.877a6.39 6.39 0 0 1 8.043 4.06l9.954 30.038a6.325 6.325 0 0 1-4.045 8.005l-7.813 2.548.353 3.269c.188 1.75-1.026 3.615-2.662 4.149l-12.18 3.973c-1.66.54-3.719-.235-4.624-1.773l-1.672-2.838-7.812 2.548a6.39 6.39 0 0 1-8.044-4.06l-9.954-30.038a6.324 6.324 0 0 1 4.046-8.004m28.17 24.135c5.023-1.639 7.755-7.006 6.104-11.988-1.65-4.983-7.061-7.694-12.083-6.056-5.023 1.638-7.755 7.005-6.104 11.988 1.651 4.983 7.061 7.694 12.083 6.056m-42.445 382.4l-1.044.546a19.232 19.232 0 0 1-8.734 9.35c-4.06 2.125-8.544 2.674-12.742 1.889l-1.044.546c-4.897 2.562-6.755 8.541-4.165 13.36l1.985 3.696a50.367 50.367 0 0 0 23.34-5.766c7.455-3.9 13.5-9.394 17.932-15.831l-1.984-3.694c-2.585-4.812-8.654-6.655-13.544-4.096m-12.659 4.535c6.513-3.408 8.994-11.381 5.54-17.808-3.453-6.427-11.532-8.874-18.045-5.466-6.512 3.408-8.992 11.38-5.54 17.807 3.454 6.427 11.533 8.875 18.045 5.467M101.61 145.789a9.121 9.121 0 0 0-.769 12.952c3.395 3.786 9.242 4.128 13.061.76a9.12 9.12 0 0 0 .769-12.95c-3.395-3.788-9.242-4.129-13.062-.762zm17.67-3.3c-5.658-6.312-15.403-6.881-21.767-1.27-6.364 5.61-6.939 15.274-1.28 21.585 5.656 6.311 15.403 6.88 21.767 1.27 6.365-5.61 6.937-15.275 1.28-21.586zm16.914 9.662c2.257 2.517 2.017 6.38-.538 8.632l-23.02 20.294c-2.554 2.25-6.456 2.03-8.71-.483l-5.28-5.891-2.786 1.566c-1.492.839-3.625.488-4.731-.747l-8.233-9.184c-1.121-1.25-1.22-3.36-.193-4.747l1.895-2.56-5.28-5.89c-2.257-2.518-2.018-6.38.537-8.634l23.021-20.292c2.554-2.25 6.456-2.03 8.71.482l24.608 27.454zM291.36 342.589l1.181 5.558a22.794 22.794 0 0 1-18.237-2.967 22.794 22.794 0 0 1-10.127-15.453l5.557-1.182a17.133 17.133 0 0 0 7.66 11.877c4.327 2.81 9.423 3.437 13.966 2.167zm-10.876-6.925c5.265 3.42 12.25 1.97 15.594-3.178l6.384-9.832c3.343-5.148 1.827-12.12-3.438-15.539-5.266-3.419-12.251-1.969-15.594 3.18l-6.385 9.83c-3.343 5.148-1.826 12.12 3.439 15.54z" fill="#FE5EBD"/></g></svg>